#!OML:ASF E:\emotionWalksFemale\Project 1\Capture day 1\Session 1\Female1.ASF
:FULLY-SPECIFIED
:DEGREES
1119
root 8.96527 15.2583 -38.4807 2.23256 7.35544 -358.699
lowerback 6.18137 0.926753 -0.231042
upperback -5.12708 1.19763 -0.366394
thorax -8.88297 0.587102 -0.423329
lowerneck -1.04094 -9.36 -12.2195
upperneck 6.4103 -12.725 8.36409
head 3.3945 -6.38714 3.92772
rclavicle 2.47176e-014 8.24956e-015
rhumerus -37.0643 10.8258 -90.9721
rradius 40.1308
rwrist 17.4747
rhand -19.2749 -53.675
rfingers 7.12502
rthumb 7.03984 -1163.54
lclavicle 2.47176e-014 8.24956e-015
lhumerus -42.5556 9.03425 78.5426
lradius 45.3597
lwrist -5.26343
lhand -20.1186 -40.6677
lfingers 7.12502
lthumb 6.22528 -10.7792
rfemur -9.08256 8.24447 26.4481
rtibia 31.7735
rfoot -23.8069 -29.7077
rtoes 3.95316
lfemur -12.1454 -14.4927 -24.2035
ltibia 31.8704
lfoot -25.3596 8.96365
ltoes -18.3269
1120
root 8.96036 15.2598 -38.4764 2.30544 7.36715 -358.62
lowerback 6.14441 0.894883 -0.44307
upperback -5.14111 1.13409 -0.356547
thorax -8.8813 0.569847 -0.284765
lowerneck -1.12994 -9.43307 -12.2131
upperneck 6.47343 -12.8106 8.28494
head 3.43137 -6.42968 3.89066
rclavicle -3.69926e-014 -7.95139e-016
rhumerus -37.1663 11.0333 -90.9291
rradius 39.9265
rwrist 16.7184
rhand -19.5243 -54.9282
rfingers 7.12502
rthumb 6.79903 -1164.8
lclavicle -3.69926e-014 -7.95139e-016
lhumerus -42.3328 9.17947 78.4675
lradius 45.2913
lwrist -5.19142
lhand -19.9846 -40.382
lfingers 7.12502
lthumb 6.35469 -10.4973
rfemur -9.14715 8.21824 26.3804
rtibia 31.8029
rfoot -23.6074 -29.7703
rtoes 3.45798
lfemur -12.1781 -14.4505 -24.2505
ltibia 31.8287
lfoot -25.3724 8.74542
ltoes -17.1838
1121
root 8.96523 15.2594 -38.4553 2.22315 7.12022 -358.624
lowerback 5.92859 0.95597 -0.441814
upperback -5.04383 1.21573 -0.382736
thorax -8.64745 0.609081 -0.318686
lowerneck -1.28236 -9.57402 -12.0562
upperneck 6.55131 -12.9786 8.10446
head 3.4749 -6.51097 3.79132
rclavicle 1.19022e-014 1.22253e-014
rhumerus -37.1379 10.6802 -90.5914
rradius 39.6732
rwrist 17.0811
rhand -18.9927 -55.2625
rfingers 7.12502
rthumb 7.31223 -1165.12
lclavicle 1.19022e-014 1.22253e-014
lhumerus -42.0786 9.38454 78.2959
lradius 45.1686
lwrist -5.23475
lhand -19.9385 -40.2618
lfingers 7.12502
lthumb 6.39914 -10.3784
rfemur -8.97884 8.32129 26.3764
rtibia 31.7992
rfoot -23.62 -29.6958
rtoes 3.85855
lfemur -11.9361 -14.458 -24.3361
ltibia 31.7797
lfoot -25.4418 8.93238
ltoes -16.5415
1122
root 8.9668 15.2599 -38.4415 2.32675 6.97722 -358.62
lowerback 5.97681 0.962448 -0.321563
upperback -5.20007 1.22558 -0.513931
thorax -8.84043 0.601374 -0.529403
lowerneck -1.33829 -9.66157 -11.8068
upperneck 6.72402 -13.0939 7.91265
head 3.5186 -6.56752 3.68209
rclavicle 3.52812e-014 2.38542e-015
rhumerus -37.452 10.4309 -90.6254
rradius 39.4436
rwrist 17.0593
rhand -15.7277 -58.6687
rfingers 7.12502
rthumb 10.4628 -1168.39
lclavicle 3.52812e-014 2.38542e-015
lhumerus -42.2158 9.38002 77.9406
lradius 45.2796
lwrist -5.26027
lhand -19.9483 -40.1955
lfingers 7.12502
lthumb 6.38969 -10.3118
rfemur -9.01905 8.42598 26.3569
rtibia 31.77
rfoot -23.7185 -29.6516
rtoes 4.11041
lfemur -11.9598 -14.3514 -24.3381
ltibia 31.7434
lfoot -25.4671 8.99232
ltoes -16.8639
1123
root 8.96558 15.2632 -38.4323 2.47833 6.90074 -358.627
lowerback 5.81755 0.941868 -0.350412
upperback -5.23524 1.19468 -0.530762
thorax -8.78515 0.587845 -0.524152
lowerneck -1.3876 -9.6928 -11.8138
upperneck 6.71393 -13.1323 7.94033
head 3.5297 -6.5846 3.68611
rclavicle 1.5089e-014 -9.6659e-015
rhumerus -37.4804 10.3224 -90.476
rradius 39.1083
rwrist 17.3056
rhand -19.5822 -54.214
rfingers 7.12502
rthumb 6.74314 -1164.09
lclavicle 1.5089e-014 -9.6659e-015
lhumerus -42.2029 9.42947 77.8052
lradius 45.4781
lwrist -5.2188
lhand -20.1144 -40.0007
lfingers 7.12502
lthumb 6.22939 -10.1123
rfemur -9.11797 8.5575 26.3586
rtibia 31.7109
rfoot -23.7688 -29.6923
rtoes 4.16149
lfemur -12.0783 -14.3344 -24.291
ltibia 31.7367
lfoot -25.5642 9.01678
ltoes -17.0171
1124
root 8.96385 15.2668 -38.425 2.66071 6.85645 -358.655
lowerback 5.55485 0.8976 -0.416412
upperback -5.21814 1.13389 -0.488911
thorax -8.61405 0.56443 -0.429524
lowerneck -1.33731 -9.70712 -11.9919
upperneck 6.55538 -13.1582 8.1337
head 3.50094 -6.59617 3.77407
rclavicle -5.02552e-015 -2.13694e-015
rhumerus -37.4104 10.2269 -90.1857
rradius 38.8707
rwrist 17.4564
rhand -16.1675 -58.8256
rfingers 7.12502
rthumb 10.0386 -1168.57
lclavicle -5.02552e-015 -2.13694e-015
lhumerus -42.0782 9.66632 77.6684
lradius 45.5879
lwrist -5.10209
lhand -20.1196 -39.8374
lfingers 7.12502
lthumb 6.22438 -9.94885
rfemur -9.27115 8.66658 26.3776
rtibia 31.6475
rfoot -23.8838 -29.6954
rtoes 4.48839
lfemur -12.2674 -14.355 -24.2039
ltibia 31.7656
lfoot -25.6311 9.01896
ltoes -16.8549
1125
root 8.96472 15.2655 -38.4157 2.58151 6.72811 -358.699
lowerback 5.93148 0.877787 -0.298906
upperback -5.36374 1.11046 -0.55711
thorax -8.99155 0.541851 -0.573768
lowerneck -1.28165 -9.72358 -12.0064
upperneck 6.6931 -13.1991 8.18998
head 3.54228 -6.61741 3.78976
rclavicle -2.82228e-014 3.85145e-015
rhumerus -37.7261 9.84923 -89.9974
rradius 38.9818
rwrist 18.4057
rhand -18.1508 -55.8019
rfingers 7.12502
rthumb 8.12482 -1165.63
lclavicle -2.82228e-014 3.85145e-015
lhumerus -42.3499 9.80015 77.2435
lradius 45.7361
lwrist -4.95565
lhand -19.6828 -39.7361
lfingers 7.12502
lthumb 6.64599 -9.86041
rfemur -9.13978 8.73533 26.4362
rtibia 31.5841
rfoot -23.866 -29.8273
rtoes 3.93145
lfemur -12.1539 -14.3726 -24.2022
ltibia 31.8131
lfoot -25.7039 9.16577
ltoes -16.819
1126
root 8.96395 15.2653 -38.4069 2.5315 6.58712 -358.761
lowerback 5.99324 0.897842 -0.258255
upperback -5.33564 1.138 -0.595626
thorax -8.9956 0.551099 -0.641874
lowerneck -1.29001 -9.79745 -11.9483
upperneck 6.6811 -13.3064 8.26715
head 3.55222 -6.66654 3.79599
rclavicle 3.80611e-014 2.46617e-015
rhumerus -38.1608 10.8747 -90.8284
rradius 38.4408
rwrist 13.3193
rhand -22.0984 -55.21
rfingers 7.12502
rthumb 4.31375 -1165.15
lclavicle 3.80611e-014 2.46617e-015
lhumerus -42.2874 9.97082 76.9297
lradius 45.7905
lwrist -4.96947
lhand -19.2649 -39.626
lfingers 7.12502
lthumb 7.04947 -9.76336
rfemur -9.04034 8.82295 26.5188
rtibia 31.532
rfoot -23.705 -30.0596
rtoes 3.06147
lfemur -12.0832 -14.3492 -24.1615
ltibia 31.8574
lfoot -25.6481 9.23983
ltoes -15.9926
1127
root 8.96566 15.261 -38.399 2.34701 6.43617 -358.806
lowerback 6.2023 0.918618 -0.316072
upperback -5.28739 1.16211 -0.552904
thorax -9.0685 0.567622 -0.57096
lowerneck -1.16712 -9.89139 -11.9731
upperneck 6.56147 -13.4421 8.29437
head 3.51341 -6.7359 3.80652
rclavicle -4.33958e-014 3.38555e-015
rhumerus -38.0665 10.3074 -90.2544
rradius 38.2145
rwrist 15.2411
rhand -20.5897 -56.5997
rfingers 7.12502
rthumb 5.77048 -1166.5
lclavicle -4.33958e-014 3.38555e-015
lhumerus -42.2685 10.1737 76.7437
lradius 45.8203
lwrist -4.94976
lhand -19.0195 -39.4463
lfingers 7.12502
lthumb 7.2863 -9.59175
rfemur -8.79622 8.84927 26.5878
rtibia 31.4968
rfoot -23.7277 -29.9192
rtoes 3.0601
lfemur -11.8442 -14.3212 -24.1908
ltibia 31.895
lfoot -25.6653 9.29627
ltoes -15.1903
1128
root 8.96789 15.2617 -38.3884 2.4586 6.25069 -358.81
lowerback 5.99599 0.910223 -0.290187
upperback -5.25977 1.15243 -0.581562
thorax -8.91519 0.56083 -0.609911
lowerneck -1.1237 -9.98143 -11.9463
upperneck 6.40189 -13.5583 8.2634
head 3.46605 -6.79391 3.79045
rclavicle 1.32471e-014 6.55989e-015
rhumerus -37.7099 9.47497 -89.5184
rradius 37.989
rwrist 18.2881
rhand -20.3826 -55.0492
rfingers 7.12502
rthumb 5.97043 -1164.95
lclavicle 1.32471e-014 6.55989e-015
lhumerus -42.241 10.3595 76.4625
lradius 45.9254
lwrist -4.84894
lhand -18.6571 -39.2296
lfingers 7.12502
lthumb 7.63609 -9.38744
rfemur -8.87451 8.88254 26.5611
rtibia 31.4754
rfoot -23.7979 -29.6661
rtoes 2.82963
lfemur -11.8966 -14.2911 -24.1856
ltibia 31.9108
lfoot -25.7939 9.54844
ltoes -16.4286
1129
root 8.96797 15.261 -38.377 2.48691 6.02755 -358.814
lowerback 6.02928 0.929647 -0.271592
upperback -5.2985 1.17553 -0.637492
thorax -8.97547 0.568567 -0.683976
lowerneck -1.13425 -10.0396 -11.9739
upperneck 6.39395 -13.6415 8.34497
head 3.48136 -6.8331 3.81193
rclavicle -2.79541e-015 -2.90723e-015
rhumerus -37.6791 9.05708 -89.1656
rradius 37.9167
rwrist 19.7523
rhand -21.0663 -53.6887
rfingers 7.12502
rthumb 5.31029 -1163.6
lclavicle -2.79541e-015 -2.90723e-015
lhumerus -42.4013 10.3641 76.1501
lradius 46.0987
lwrist -4.72212
lhand -18.4132 -38.9408
lfingers 7.12502
lthumb 7.87157 -9.10737
rfemur -8.85977 8.97945 26.5607
rtibia 31.4642
rfoot -23.7823 -29.5985
rtoes 2.44855
lfemur -11.8449 -14.2666 -24.1996
ltibia 31.9233
lfoot -25.8968 9.83537
ltoes -17.3795
1130
root 8.9685 15.2589 -38.3653 2.43081 5.79505 -358.816
lowerback 6.00658 0.993803 -0.313909
upperback -5.27728 1.25401 -0.682255
thorax -8.93823 0.607982 -0.717507
lowerneck -0.954086 -10.0872 -12.033
upperneck 6.28074 -13.7352 8.55196
head 3.446 -6.87919 3.88751
rclavicle -3.66571e-014 0
rhumerus -37.7771 8.75158 -88.9583
rradius 37.7869
rwrist 20.0677
rhand -21.9144 -53.2123
rfingers 7.12502
rthumb 4.49139 -1163.14
lclavicle -3.66571e-014 0
lhumerus -42.522 10.1994 75.9665
lradius 46.2575
lwrist -4.57325
lhand -18.5509 -38.4523
lfingers 7.12502
lthumb 7.73863 -8.61387
rfemur -8.74611 9.08052 26.5662
rtibia 31.4396
rfoot -23.8122 -29.4928
rtoes 2.76846
lfemur -11.6988 -14.2076 -24.2412
ltibia 31.9354
lfoot -26.007 9.89875
ltoes -16.7564
1131
root 8.97025 15.258 -38.3539 2.4239 5.62769 -358.863
lowerback 6.05891 0.997926 -0.33369
upperback -5.34953 1.25755 -0.673976
thorax -9.04877 0.610804 -0.700538
lowerneck -0.560294 -10.1936 -12.0468
upperneck 6.14668 -13.9147 8.54317
head 3.36042 -6.97829 3.89813
rclavicle 9.23728e-015 -5.86415e-015
rhumerus -37.9298 8.40937 -88.7081
rradius 37.6131
rwrist 20.519
rhand -22.0193 -53.7744
rfingers 7.12502
rthumb 4.39014 -1163.71
lclavicle 9.23728e-015 -5.86415e-015
lhumerus -42.8032 10.1692 75.7275
lradius 46.3921
lwrist -4.49088
lhand -18.6173 -38.0748
lfingers 7.12502
lthumb 7.6745 -8.23407
rfemur -8.68079 9.09782 26.6125
rtibia 31.4023
rfoot -23.7945 -29.3642
rtoes 2.92042
lfemur -11.6224 -14.1468 -24.2084
ltibia 31.9493
lfoot -26.1752 9.69491
ltoes -14.9931
1132
root 8.97182 15.2588 -38.3423 2.49636 5.50507 -358.937
lowerback 5.84867 0.971714 -0.366625
upperback -5.30819 1.22487 -0.620216
thorax -8.88139 0.599717 -0.615455
lowerneck -0.582114 -10.3074 -11.8306
upperneck 6.09212 -14.0413 8.19767
head 3.32068 -7.04435 3.75506
rclavicle -2.21583e-014 6.41081e-015
rhumerus -37.7702 8.25268 -88.4199
rradius 37.49
rwrist 20.7494
rhand -21.7624 -54.719
rfingers 7.12502
rthumb 4.63824 -1164.65
lclavicle -2.21583e-014 6.41081e-015
lhumerus -42.8026 10.4194 75.473
lradius 46.3182
lwrist -4.48956
lhand -18.3027 -37.9634
lfingers 7.12502
lthumb 7.97823 -8.13392
rfemur -8.70408 9.12165 26.6818
rtibia 31.366
rfoot -23.6035 -29.4
rtoes 1.9387
lfemur -11.6606 -14.1547 -24.119
ltibia 31.9636
lfoot -26.2556 9.61429
ltoes -14.0193
1133
root 8.97587 15.2603 -38.329 2.54625 5.31466 -358.96
lowerback 5.66618 1.04431 -0.335126
upperback -5.29313 1.32076 -0.698494
thorax -8.75404 0.642277 -0.724305
lowerneck -0.394099 -10.4509 -11.6553
upperneck 6.02318 -14.254 8.16071
head 3.27555 -7.15129 3.71572
rclavicle -1.11754e-014 1.40143e-014
rhumerus -37.7153 7.8302 -88.1707
rradius 37.4852
rwrist 20.7849
rhand -20.6352 -56.8366
rfingers 7.12502
rthumb 5.72657 -1166.74
lclavicle -1.11754e-014 1.40143e-014
lhumerus -42.768 10.4197 75.1648
lradius 46.1569
lwrist -4.58865
lhand -17.9629 -37.7736
lfingers 7.12502
lthumb 8.30618 -7.95692
rfemur -8.71733 9.19424 26.6811
rtibia 31.347
rfoot -23.4525 -29.5032
rtoes 0.771525
lfemur -11.6461 -14.1833 -24.1234
ltibia 31.9649
lfoot -26.2917 9.83309
ltoes -14.3831
